<svg width="215" height="34" viewBox="0 0 215 34" fill="none" xmlns="http://www.w3.org/2000/svg">
<path d="M119.382 6.26172C125.212 6.26172 129.955 10.957 129.955 16.7275V23.498C129.955 29.2886 125.212 34 119.382 34C115.061 34 111.219 31.417 109.594 27.4199L109.471 27.1191H111.211L111.271 27.2461C112.745 30.3786 115.928 32.4023 119.382 32.4023C124.325 32.4023 128.347 28.4244 128.347 23.5352V22.3037C126.432 25.3615 123.083 27.2285 119.418 27.2285C113.587 27.2285 108.842 22.5356 108.842 16.7666C108.842 10.975 113.571 6.26176 119.382 6.26172ZM23.6221 27.4795H21.9932V0.583984H23.6221V27.4795ZM1.61426 11.1865C3.52725 8.12904 6.874 6.26274 10.5381 6.2627C16.3692 6.2627 21.113 10.9567 21.1133 16.7266C21.1133 22.5172 16.387 27.2283 10.5771 27.2285C4.74543 27.2285 4.06655e-05 22.5358 0 16.7666V0H1.61426V11.1865ZM46.7139 6.2627C52.4706 6.26276 57.1677 10.8387 57.2861 16.5078H57.2881L57.3281 16.7275C57.3279 22.518 52.5662 27.2284 46.7139 27.2285C44.6917 27.2285 42.7152 26.6432 40.9902 25.5342C39.2703 26.643 37.2965 27.2284 35.2715 27.2285C29.4406 27.2285 24.6953 22.5358 24.6953 16.7666C24.6953 10.9746 29.4406 6.2627 35.2715 6.2627C37.2828 6.26276 39.27 6.84928 41.0264 7.95996C42.75 6.84921 44.713 6.2627 46.7139 6.2627ZM152.051 0V16.7266C152.051 22.5172 147.324 27.2283 141.513 27.2285C135.682 27.2285 130.939 22.5358 130.938 16.7666C130.938 10.9746 135.682 6.2627 141.513 6.2627C145.178 6.26282 148.526 8.12917 150.44 11.1865V0H152.051ZM163.572 6.26172C169.403 6.26193 174.146 10.9571 174.146 16.7275V26.7197H172.535V22.3037C170.62 25.3615 167.27 27.2285 163.604 27.2285C157.776 27.2284 153.033 22.5355 153.033 16.7666C153.033 10.975 157.761 6.26172 163.572 6.26172ZM188.74 6.2627C194.573 6.26293 199.318 10.9572 199.318 16.7275V17.5459H179.871C180.27 22.101 184.14 25.6367 188.782 25.6367C192.237 25.6366 195.421 23.6089 196.894 20.4717L196.953 20.3447H198.7L198.577 20.6465C196.947 24.645 193.102 27.2284 188.782 27.2285C182.952 27.2285 178.208 22.5358 178.208 16.7666C178.208 10.9746 182.933 6.2627 188.74 6.2627ZM208.142 6.2627C211.038 6.2627 213.395 8.61061 213.395 11.4961V11.7148H211.788V11.4961C211.788 9.49227 210.153 7.86133 208.142 7.86133C206.115 7.86147 204.465 9.50118 204.465 11.5166C204.465 13.8639 206.325 14.5959 208.572 15.248C212.306 16.2701 214.2 18.2679 214.2 21.1846C214.2 24.5179 211.482 27.2285 208.142 27.2285C204.786 27.2284 202.056 24.5178 202.056 21.1846V20.9648H203.667V21.1846C203.667 23.6396 205.659 25.6365 208.106 25.6367C210.561 25.6367 212.588 23.6527 212.624 21.2148C212.624 18.9489 211.099 17.4358 208.091 16.7227C204.608 15.859 202.859 14.0937 202.893 11.4746C202.893 8.60204 205.248 6.26284 208.142 6.2627ZM79.2695 6.2627C83.4313 6.2627 86.8174 9.6115 86.8174 13.7275V26.7197H85.207V13.7275C85.207 10.4932 82.5438 7.86133 79.2695 7.86133C76.0157 7.86135 73.3682 10.4932 73.3682 13.7275V26.7197H71.7607V13.7275C71.7607 10.4932 69.0955 7.86133 65.8203 7.86133C62.5649 7.86159 59.916 10.4933 59.916 13.7275V26.7197H58.3076V13.7627C58.3078 9.62722 61.6784 6.26296 65.8203 6.2627C68.6825 6.2627 71.2799 7.86421 72.5635 10.3828C73.8458 7.86436 76.4283 6.26271 79.2695 6.2627ZM89.9482 26.7197H88.3379V6.77344H89.9482V26.7197ZM99.6582 6.2627C104.183 6.26283 107.864 9.91874 107.864 14.4121V26.7197H106.256V14.4463C106.256 10.8157 103.296 7.86146 99.6582 7.86133C96.0047 7.86133 93.0322 10.8003 93.0322 14.4121V26.7197H91.418V14.4121C91.418 9.91866 95.1145 6.2627 99.6582 6.2627ZM177.225 26.7197H175.614V0H177.225V26.7197ZM35.3418 7.93457C30.3999 7.93457 26.3791 11.9104 26.3789 16.7979C26.3789 21.7095 30.3826 25.7051 35.3037 25.7051C36.8745 25.705 38.3838 25.3109 39.6895 24.5615C37.4887 22.5705 36.2527 19.769 36.2881 16.8311C36.2881 13.8913 37.5319 11.0741 39.71 9.05762C38.39 8.32212 36.8862 7.93459 35.3418 7.93457ZM10.5771 7.86133C5.63531 7.86133 1.61451 11.8383 1.61426 16.7266C1.61426 21.6391 5.61744 25.6366 10.5381 25.6367C15.4818 25.6367 19.5039 21.6576 19.5039 16.7666C19.5039 11.8568 15.4995 7.86151 10.5771 7.86133ZM46.791 7.86133C45.1983 7.86133 43.6931 8.25824 42.418 9.01172C44.6007 10.9962 45.8467 13.792 45.8467 16.7275C45.8465 19.6769 44.5892 22.497 42.3857 24.5117C43.7186 25.2486 45.2223 25.6367 46.7529 25.6367C51.6957 25.6366 55.7168 21.6576 55.7168 16.7666V16.5469H55.748C55.6304 11.738 51.6579 7.86138 46.791 7.86133ZM119.418 7.86133C114.475 7.86133 110.453 11.8387 110.453 16.7275C110.453 21.6394 114.459 25.6367 119.382 25.6367C124.317 25.6367 128.338 21.6486 128.347 16.7471C128.338 11.8482 124.333 7.8614 119.418 7.86133ZM141.513 7.86133C136.57 7.86133 132.55 11.8383 132.55 16.7266C132.55 21.6391 136.554 25.6367 141.477 25.6367C146.419 25.6366 150.44 21.6576 150.44 16.7666C150.44 11.8568 146.435 7.86152 141.513 7.86133ZM163.604 7.86133C158.662 7.86144 154.641 11.8387 154.641 16.7275C154.641 21.6395 158.648 25.6367 163.572 25.6367C168.506 25.6365 172.526 21.6484 172.535 16.7471C172.526 11.8481 168.52 7.86133 163.604 7.86133ZM41.0635 9.95117C39.0263 11.6566 37.8623 14.1304 37.8623 16.7666C37.8623 19.3931 39.0274 21.8761 41.0664 23.6074C43.1045 21.9121 44.2695 19.4402 44.2695 16.7979C44.2694 14.1701 43.1037 11.685 41.0635 9.95117ZM201.914 17.5459H200.304V6.77246H201.914V17.5459ZM188.782 7.86133C184.137 7.86133 180.268 11.3946 179.871 15.9473H197.655C197.26 11.3947 193.407 7.86148 188.782 7.86133ZM89.9482 4.60547H88.3379V0.000976562H89.9482V4.60547Z" fill="#111111"/>
</svg>
